<mxfile host="app.diagrams.net" agent="Mozilla/5.0 (Macintosh; Intel Mac OS X 10_15_7) AppleWebKit/537.36 (KHTML, like Gecko) Chrome/136.0.0.0 Safari/537.36" version="27.1.1">
  <diagram name="Page-1" id="aC0QLlncvfHD74hKhl9t">
    <mxGraphModel dx="887" dy="532" grid="1" gridSize="10" guides="1" tooltips="1" connect="1" arrows="1" fold="1" page="1" pageScale="1" pageWidth="850" pageHeight="1100" math="0" shadow="0">
      <root>
        <mxCell id="0" />
        <mxCell id="1" parent="0" />
        <mxCell id="gdi4N7OGfdGUCpry7gix-37" style="edgeStyle=orthogonalEdgeStyle;rounded=0;orthogonalLoop=1;jettySize=auto;html=1;entryX=0;entryY=0.5;entryDx=0;entryDy=0;" edge="1" parent="1" source="gdi4N7OGfdGUCpry7gix-13" target="gdi4N7OGfdGUCpry7gix-20">
          <mxGeometry relative="1" as="geometry" />
        </mxCell>
        <mxCell id="gdi4N7OGfdGUCpry7gix-39" value="context" style="edgeLabel;html=1;align=center;verticalAlign=middle;resizable=0;points=[];" vertex="1" connectable="0" parent="gdi4N7OGfdGUCpry7gix-37">
          <mxGeometry x="-0.081" y="-2" relative="1" as="geometry">
            <mxPoint x="1" y="-2" as="offset" />
          </mxGeometry>
        </mxCell>
        <mxCell id="gdi4N7OGfdGUCpry7gix-13" value="" style="rounded=1;whiteSpace=wrap;html=1;dashed=1;" vertex="1" parent="1">
          <mxGeometry x="329" y="296.94" width="250" height="230" as="geometry" />
        </mxCell>
        <mxCell id="gdi4N7OGfdGUCpry7gix-1" value="" style="rounded=1;whiteSpace=wrap;html=1;" vertex="1" parent="1">
          <mxGeometry x="349" y="370.57" width="80" height="66.25" as="geometry" />
        </mxCell>
        <mxCell id="gdi4N7OGfdGUCpry7gix-12" style="edgeStyle=orthogonalEdgeStyle;rounded=0;orthogonalLoop=1;jettySize=auto;html=1;entryX=0;entryY=0.5;entryDx=0;entryDy=0;" edge="1" parent="1" source="MhJJxb33x_0aDwhk_BRI-3" target="r-FI9sSgYMsOw1SAUbAI-6">
          <mxGeometry relative="1" as="geometry" />
        </mxCell>
        <mxCell id="MhJJxb33x_0aDwhk_BRI-3" value="" style="rounded=1;whiteSpace=wrap;html=1;" parent="1" vertex="1">
          <mxGeometry x="80" y="388.19" width="50" height="47.5" as="geometry" />
        </mxCell>
        <mxCell id="tW_ZdPbJPwL0s5sbWzu6-3" value="" style="rounded=1;whiteSpace=wrap;html=1;shadow=0;" parent="1" vertex="1">
          <mxGeometry x="769" y="381.94" width="85" height="60" as="geometry" />
        </mxCell>
        <mxCell id="gdi4N7OGfdGUCpry7gix-40" style="edgeStyle=orthogonalEdgeStyle;rounded=0;orthogonalLoop=1;jettySize=auto;html=1;entryX=0.5;entryY=0;entryDx=0;entryDy=0;" edge="1" parent="1" target="gdi4N7OGfdGUCpry7gix-20">
          <mxGeometry relative="1" as="geometry">
            <mxPoint x="220" y="374.94" as="sourcePoint" />
            <mxPoint x="699" y="375.5700000000001" as="targetPoint" />
            <Array as="points">
              <mxPoint x="220" y="279.94" />
              <mxPoint x="699" y="279.94" />
            </Array>
          </mxGeometry>
        </mxCell>
        <mxCell id="gdi4N7OGfdGUCpry7gix-41" value="query" style="edgeLabel;html=1;align=center;verticalAlign=middle;resizable=0;points=[];" vertex="1" connectable="0" parent="gdi4N7OGfdGUCpry7gix-40">
          <mxGeometry x="0.5632" y="-4" relative="1" as="geometry">
            <mxPoint x="-200" y="-4" as="offset" />
          </mxGeometry>
        </mxCell>
        <mxCell id="r-FI9sSgYMsOw1SAUbAI-6" value="User Query API" style="rounded=1;whiteSpace=wrap;html=1;" parent="1" vertex="1">
          <mxGeometry x="170" y="381.94" width="100" height="60" as="geometry" />
        </mxCell>
        <mxCell id="r-FI9sSgYMsOw1SAUbAI-19" value="" style="sketch=0;outlineConnect=0;fontColor=#232F3E;gradientColor=none;fillColor=#232F3D;strokeColor=none;dashed=0;verticalLabelPosition=bottom;verticalAlign=top;align=center;html=1;fontSize=12;fontStyle=0;aspect=fixed;pointerEvents=1;shape=mxgraph.aws4.user;" parent="1" vertex="1">
          <mxGeometry x="90" y="396.94" width="30" height="30" as="geometry" />
        </mxCell>
        <mxCell id="tW_ZdPbJPwL0s5sbWzu6-1" value="" style="shape=image;verticalLabelPosition=bottom;labelBackgroundColor=default;verticalAlign=top;aspect=fixed;imageAspect=0;image=data:image/png,iVBORw0KGgoAAAANSUhEUgAAAtEAAALRCAYAAACdyf8HAAAACXBIWXMAAAsTAAALEwEAmpwYAAAAAXNSR0IArs4c6QAAAARnQU1BAACxjwv8YQUAAECtSURBVHgB7d09liTHmS7ot/uOfjnaaDRqoxFcQTu10RpcAYIrALmCDK4A6BVEUpuRwCuNGNXSnJEAriCiVwC0drW8aYzMrkKhfvIn3NzN/HnO+U5mFXFYEeY/9rn5Z2YJAAAAAAAAAAAAAAAAAAAAAAAAAAAAAAAAAAAAAAAAAAAAAAAAAAAAAAAAAAAAAAAAAAAAAAAAAAAAAAAAAAAAAAAAAAAAAAAAAAAAAAAAAAAAAAAAAAAAAAAAAAAAAAAAAAAAAAAAAAAAAAAAAAAAAAAAAAAAAAAAAAAAAAAAAAAAAAAAAAAAAAAAAAAAAAAAAAAAAAAAAAAAAAAAAAAAAAAAAAAAAAAAAAAAAAAAAAAAAAAAAAAAAAAAAAAAAAAAAAAAAAAAAAAAAAAAAAAAAAAAAAAAAAAAAAAAAAAAAAAAAAAAAAAAAAAAAAAAAAAAAAAAAAAAAAAAAAAAAAAAAAAAAAAAAAAAAAAAAAAAAAAAAAAAAAAAAAAAAAAAAAAAAAAAAAAAAAAAAAAAAAAAAAAAAAAAAAAAAAAAAAAAAAAAAAAAAAAAAAAAAAAAAAAj+6cAjKW8E7+6j18//PzVO3+Xd/7uc356L6rzffzHw5/PDz9/eOd/B2BwkmigR48J8Rf38dt3fi9Z1rvJ9N8ffj8//ARgIJJoYO1qwvxF3ibMU5ZPlp/rMbmu8e95m1wD0ClJNLA2j0nzvz78nDKmcy7J9P/I2wQbgE5IooE1mO7jXx5+Ttmm8328ySWprj/VVwMA8AvTfXxzHz/ex534RRzvY5f+SlcAALiyKRJnCTUAAJ9V7uMmEudrxeE+vgwAAMOpkwNrondMXwlqT3HKJaEuAQCgazV5volR59bxXbY7IRMAoFtTLolcT4nniHHKpXYaAIAVm6JkQzINAMCTTJE895JM30TdNADAoqZInntNpncBAKCpKZJnyTQAAE9SV9s4pK9EUTwtmbbWNADADG5iqbrR4xD10gAAVzHlMlLZQxIorhM3AQDgRWrpxjfpK/kT14tTbNgCAPAstT5W6YaocYgSDwCAT6qjz3YaFO/HKVbxAPik/xZgq6b7+P/u44vAz9WHqy8ffv7/9/E/AwCwcWqfxXPiFOUdAMDGlVh5Q7wsbgLAf1HOAdvx9X383/fxfwSeb8rlIezv9/FTAAA2QPmGuFacorwDABhcuY/v01eSJvqIPwVgw5RzwLjqqhv/7338n4Hr+78efv57ADbonwKM6Kv7+DaXlTj4pfNHfn9fee8nv/S3+/hjlquT/tVDlId4/PN/z8/P//KJ/4/zw8/6Hf7znb87f+B3gH+QRMN4bu5jn22qSdD5Pn7IJRn64Z2/e/z5GiVvE7XH33/78Octr7d9vo/fZ75Es+TSvvXnu+39mDC3cs7bc6lOsPwhb883YGMk0TCWLSXQ5/t4k0syU39/TGiW8pjYPcZvs63E+pzrJNIll5VAfpu3K4L08Ebl8fz794ffHx/ggEFJomEch4y7VXNNRmpSUhOUN+knQXlMrL+8j3/J+El1PSY1kX7OyOyUS7v8a96OLo/iMZl+PG/PAQBWoyYdx/S1ssNT4pRLXfeUcRKrksuDznf38WP6Oh5Pjfq9vsqn2+BPuZyzo7bBp87pQ95uqQ4ALKR2xCMtYXfMJcEq2YaaTN2mr2P01Pjqne855VJqdFrx53W+A8BGjJJA1++wz7ZH5up332W8NwqHbG+0+TXXgYQaAGbWewJdE6vHUg1+ruQyOn1KX8dUXC/qtb2LhBoArqrnBPoUo85P9Tg6Xdush2Mr5olaP1/LfgCAV+g1gT7GqPNr7CKZ3nqc7uPrGJ0GgBc5pK+O/xjJ8zXtIpkWl/tACQDwJN+kn07+GMnznHaRTAvXGQB81k366NRP0am3tI/VL8TlutsFAPiZm6y/E6+J3J/CEkrGXWtaPC9OkUwDwD9MWX/HXZeqs9rG8qYo8RCXqJOPpwDARpWs+1X9KTrqNdpnveeMaBuHmIAIwMaUrHtU0ejzupUYlRZvo05KLgGADagbLKyxMz7F6HNP9lnneSTaxynqpQEY3E3W2Qnfxuhzj+pudzWBWuM5JdpHrZcuAYDBTFlfp2vljf7tsr7zSiwbNwGAQZSsb8Swfp4vQq/qm4OeNukRbeMUo9IADOCYdXWw9fMo3+jXTWzEIp4WNwGATtVObE2d6rehV1PUQIvnxylGpQHoTMm6OtN96FHJ+t5miL7C/AcAunLKejrRXeiNumdx7ajnk1IuAFbtJuvoNOsI1C705uuoexbzxCnKOwBYqZJ1dJY1CbMCR1+mKN0Q84eHawBW6ZR1dJIS6H6UrHc3SzFu3AQAVqJ2SmvoHCXQfaj1qfWcUbohlor68KZOGt7xTwFaK7mMQi/tj7ls5c267XJJoEt4dH4n/vPh50/vxPm9//7x73+VnyeC7/65vPPnX7/zZw+ab53v4/f5ZfvCJkmiob1Dlq8z/HOsBb12Uy7J85TtOt/Hm/v4+8PvP2SZBK4m0o8JdbmP32a7x+UciTQAC9hl+dey+7BmW12yrpaqHHM5P6f0UTpQk+pdLm90vk9f7f2aOMUIPQCN1c5nyc7P6PO63WRbdc+nXM7JKWPU25a8Tarrd+vhGLw06nn6ZQCggV2W7fS+D2s1ZTtbdR9zGW0uGV8dra0PCSOPUn8VAJhRybJJ0ikmpq1RyTbWe66jlvtsuwSg5LKl9il9HbunxFcBgJncZNlOTv3iumyl7vmYbU+M/Jgpl5KPkUp3vgoAXFnJsp3lPqzJ6Ft11+92iOT5KerD1C7jjE5/FQC4okOW69QOYS2mjF268ViyYUOOl5kyxm6UXwUArqBkuc7sFHXQa1Ay/lbddfKc5Pk6Si6lHj0d//djCgC80iHLdWS7sKQtbNV9jAe1uZT0m0zXc948DABerGS5TuwQlrTL2EvWnWK0sZWSPsuAfowHLABe6CbLdF6n6LyWMmUbdc+0t0t/D2anuBcB8AK1A1mi49qF1mrpxiHrSV7mCHXP67BPXyVCdaMZ5w0AT7bLMh3WIbS0lbrnKaxJSV/10ocAwBOdskxnVUIrU9Q9s6xd+jkHbwIAnzFlmU5qH1oosd4z61HSz6j0lwGATzikfed0ilHouW1hq+5DJM+9+lPWf35ZsQOAjypZpnPahTmNvlX3MUo3RlCy/vKO+vk8qAHwC7ss0ykxjymX1QXWkHzMde7swkhqgnqbdZ933wQA3lOTktYd0i5cW4m6Z/q2z7rPwT8FAB5Mad8RncI1bWHJuu+iLnUr6kS+tZ7L6qMB+C+HtO+IduFadhl7ybpj1D1vUcl6z+tjACDtO6pTuIYp45dueHW+bSXrTaT3AWDTpuh8erOFrbr3UffMRcl6J8l+EQA265D2HU8JL7GVrbpL4Ofqub/GRPr7ALBZp7TtdA7hJaaMXff8fdQ982lrTaT3AWBzprTvcKbwHPV18THrSRiuHeqeeY41JtJW6wDYoEPadjan8FRb2Kr726h75vnWmEgfA8CmnNK2ozHi+DRb2Kq7BF6uJtKnrOu8/jIAbEJJ+06mhE+ZMv5W3VPgOkrWlUjXz+LNCsAG7NK2gzmGjynZxlbdcG0l63prsw8Aw6tbKLfsXHbhfVtYsk7dM3Obsp7z3SRDgA1onbiV8K5dxq97ngJt1PkWazn3DwFgWHXZtJadig0J3poydunGKSZYsYz61mMt18EUAIa0S9sOZR9G36r7se5Z6QZLWsvE3GMAGFLreugp27WFuudDlOuwDiXrudamADCclqM1P2a7poy9VfcxEgXWp5YTreX6AGAgJW07kr9le7awVfcusF5rqY+eAkDXSi6z149p/6pzS7sUjr5Vt7pnerGWHQ2PAaA7Uy4J3dIdyRfZhtG36q519CXQjynruHamALB6Uy6J81qSuS3UQ08Ze6vuYyQB9GsNZR2HALBKa1794ZhxlYxf97ylUhzGtJayDiVQACsyZf1J3LcZzxaWrNtHp884pqzjmgJgQb0lcKPtXLfL+Ft1l8B46rm95LVV7xseTAEWMOVSV9dbAjfKpMLRl6w7Rd3z3KZcymPqBM3a3o/Xcv39mMv1vYuHmLmULH//HG1QAWDVpvSdvI2grrrRU5s/J9Q9z2+X51/Dh2xnVZuW9ln2ejsGgNlN6X/k8/v075C+2vw5UevVvV6eTx11POV1x+gQI9PXVM/3pUejPRwBzGTKOGUDx/TtkL7a+znHRUc+nynXv4Zv4oHnWvZZ9vrbB4CrKhkvaet5ZY4Rdx08Rd3znOberbIev114raVHo7ewdj5AEyMvl7ZPn3bpq52f0mnvYyRzTi13qzxFicdr1XkAS16TUwB4lSnr2ARgruhxJnrJWMdE3fO8piy3W+UhkumXWno0esT18wGaKBl7ubTHmNKfm/TVxh+LY4x2zalkHdfwKVZXeal9ljtu1owGeIGWr32Xjh4nr53SVxu/H6dYi3ZOay2/ctyfb+nR6CkAPEnJNkaf343eRlqm9NW+74a65/ntsv6HrEOUeDzHPssdKyUdAE+wpdHnd6M3tVPrqX0f4xCJ05ym9PcAfBOeoj50LnWMrNIB8Akl2xt97rmDOKavNj7GK+E5zb1k3dxxiiXxnuKY5Y7RFAB+odYnbnH0+d0OvDe9HK/6OXdhTjcZ5/o9xpuKT5my3LHZB4CfGXGjjufGKf1Ze5uqe57flHGXnTxEMv0xpyxzTI4B4B9Ktlu+8X6c0p81t+cxEqA5lWzj2j3FW4wP2We5Y+KhGNi8upxb7aCW7iTXEsf0Z63tOIW5PC5Zt8ZjP2ec0ucSlHNZcoLhLgAbVlffWEPHuKY4pj9rar9aumETjXntsu15CzUO8Ybj0THLHANL3QGbdZP1dIhrimP6s5a228cr3jlNUXb1btQHiZtQH1qXaP9TADamJjmHrKcjXFsc0581tFkJc3HNfjpO2XZpwZIlHR6agc0o9/F91tHxrTWO6c+S7bUPc1nrVt1rjUO2+zB3zDJtbst2YBNKTCB8ShzTn6Xaah/mMsX1+tK4yfaS6aVKOtRFA8Mr0SE/NY7pzxLtdAhzKFH3fI04ZVslHnXFkiXa+RiAgZVIoEfvFJZopxKuqfetutcap2znXF2i7OfHAAzKGtDPj2P6o436VpeaVPc8bxwyfjJ9m2XatgQa+ufA/GoCfYwbHNf37+Eaplyu0VpXapWDee1yaeuR1zB/k2XY/IamJNHMrdzHd+m/Y/7pPn4Ia+OYvE7J5fqsSd0UWim5lMycMuaqEm+yDEk0TUmimVNJ/yPQ5/v4y3385j7+R1ibn8JLPC5ZV5eZtDTYckouDzGjlXicH6K1XwdgACV910Af88uRuf0Cn6E3d41jCs81xfyEtcZNxnGb9u33faAhI9HMoaTfEeg39/H7h3gTGMfj3IRer80t2GecJfGWKLUqgYYk0VxbfU1cX0+W9OUcyTNjelyyro7STWHtSi7lHd+n76RwiSS6nusl0IgkmmurnXVPkztqTe2fc6l5fhMYS12yro5sjrwSxKgelwWtCXVJf5aa9Gt1GZqRRHNNtZ5vl378Wy7Js+1iGc2Uy0imJev6t8ulBGeXvtQBinPas0IHzfxvgeuoI1779OFNLqPPlkdjNCWXkcspY3tzH3/P5Ro+55I41fiXjPk6v+RyXOtAxR/Sz72rfs6StkoAOlI7r7sOou7E9prX2vvM+/nej2P6c9c4plA9Llk3+m6Dx3z+mO8y/uojh/SRLNY3IUu0DUAXSvrosI55faezz7yf8UOfuTd3jWMKdZ3nU9q3fcs45XnHuqT99bpE3GTd6qBF6zY5BKATte5yDZ3Jp+Jak6r2yeyf9d04pj+tj+2U7ZpyOUfuBo46sr7Py+u6S5ZZr7hlnLLeeun6gNe6PY4B6MBN1tORfKxzueYkk33S5HP33Bm0PsZTtudxybq7weOQ602K3MJo/RqXFi1p3w6nAKzcLuvpPD4Ut7n+qgT7JHcN45j+tD7OU7alTuBV9/xyu4yfTNcHrJJ1qPfg1t//xwCsWMm6O6K51sTdJ2n5PY7pT+tjPWUbpmyj7vnLzK9EiUdLS3x/gNU6Zj2dxbtRRyCmzGefpOX3OaY/rY/5lLGVqHueS8mlBKKntnpunLL8qPQp7b+3tdGBVbrJejqI1p3FPsldwzimP62P+5QxbWXJukOWT3h2sSTenJaYfF4CsDIl6+kU3o3v0+amuU/S8nsd05/Wx37KeHZR97yEWgZ2Sl/t+Jw4ZZkl8Y5p/11LAFam3oTvVhb1dWyrkax92n63Y/rT+vhPGceU8Us3Tln39tUl6qWv7Tbtv2MJwIrcZD2dwGPcpq192n6/Y/rT+hyY0r/6EHhI+7ZrGUvVPb9UyfgPNIe0STZvk9w1jikAK1Gyjpv+u3Gb9vZp+x2P6U/r82BK326yjbrnkj7tMn699E3mfbi5TXLXOKYArMTadiX8NsvYp+33PKY/rc+FKX2aMn5ydsw4ycw+Yz/snDJficdtkrvGMQVgBXZZ9ub+ftxmOfu0/a7H9Kf1+TClLyXbWLJul/GUjF8vPcck7W+TZp//MaZAA/8c+LiSZWZzf8xfM2bnzPgel6w7ZdwO/qf7+Mt9/CbLPuzO5ZzL/ec3D7+P6ItcztFDrpdM/xQYlCSaT6mdfsk6/BAJNH2qW3XXxGSfcf3tPn6Xy3ccPWk655JI/zHjJtO7XN6Y7ALAs5Us90rx/agJyBpm9e/T9nsf05/W58aU9ZoyfunGMdt+dV7vS/v0dcyeG6e87hjfZt7P96H4ItCAkWg+5pB1ON/H7+OVIP0ouVw/x4xdulFHYuu1+SbbVdthn8vI9F8zppLLuXxIP6us6C+AxezSfuSghxGFfdp+92P60/r8mLIeW9iqu7f1nlubso0l8Z7jtuFne4wSgIWc0v6m96H4U9Zln7bf/5j+tD5HpqzDlG0sWVfCU+wy/hbiuzzN7QKfD2ARu7S/4X0o9lmffdq2wTH9aX2eTFlWibpnPqxkmeXdWsZ3+fyD1e0CnwtgEae0v+G9H6es0z5t2+GY/rQ+V6Yso5YzfJP237dl1NKNtb0N6lHJ+OtLf5OPJ9PHxp/lxwAsYJe2N7sPxSnrfWW8T9u2OKY/rc+XKe3VJevUPfNcX2abJR7Hxp/j+wAsoN4E7xaOXdZrn7ZtcUx/Wp8vU9qZMn7pRo1vwpx2GT+ZLu9831Pjf/8YgMZ2aXuj+1Acsm776Aw+p/U5M2V+JZfaz7sNxSk22phTyfglHoeH79n6rc3fAtDYKW1vdB/qtNf++niftm1yTH9anzdT5rOFJes+F/XVeAlzKRn7AW2Ja+fbQCM2W6HaZfmOsm7cYIF81qLWr9YEcp9t1wbXddpP6WujjZ6c7+MPGXcL8SWunXOgEUk01ddZ1m22vesZ61GTxmOetnTXluxyaRerdczjNpddD/8SSeBrnQPQyJT2r9vejTrKVdKHfdq2zTH9aX3+TLmOLSxZd604Rb30nErGr5eeM9a0yy2DMxLNV1mWkReWVt/EnGKU9alKLuUdhxitn8M5l4eUOjL9Q3iucwAaKFl2xOCUvuzTtn2O6U/rc2jKy0251D3fiVfFTawpPaddxt9S/lphoxWaMhK9bbss6/eB9kouDyg1vPp9vX0uDyO7MIfbvK2XNvn604zc05Qketu+ynJu47UbbT0uWVcTvilcU8mlvOMUJR5z2d/H7+7jr+Fj/h5oSBK9XXUJr5Ll/CXQzi6WrGuhxJJ4czrnbb30ObzvHGhIEr1d/5rl3MbNjjamXMo2JHVt7XJp95swh3MuifSo60u/lHIOYHYly07+KOnTPm3b6Zj+tD6Xpo98DkvWrSdOUS89p3qu79PXOTFXeMtEU0ait2nKcm5j5IR53cSSdWtSYkm8OdXJhvtcRqa3XC99jomXNCaJ3qavshy10MxlyiV53seI1Brtcjk+9Q1BCdd2zqWNf59tDlSYVEhzkujtKVluJPo2RqG5vpK3S9aVsHb1DUE9VrswhzfZZr20emhgdrssV69W0rd92rbXMf1pfU59l8sGC3eDxuibwZxire45lfv4Nn2dEy+NKQAzO2aZG9wx/dtHm33OnbjasZ8e2rTk8hanl8/+kjjEW4Q5lYx/DinhAmZVstwNbpf+7dO2zY7pz514VdRR9V0+rI7Ynlb0Wef47jdhTruMeQ59H4CZ7bLMDe6UMezTtt2O6c+deFHUBHKfp42m7TJ2Mn2Keum57TLWOXQILMDEwm1ZaoMV29TCx93mMhFsn6ct0fX439eVbs4ZT8klKfouSjzmcpvLKh7uzQBPtNQErJIx7NO23Y7pz5141vGd8jol6qV5nZLLA0sv58PH4iYAM5myzI3tmHHso+0+5058Nk65/koCJWMkQp9qs12Y0y79l3jcBGAG+yxzU9tlHPu0bbtj+nMnPhr1TdDcuyjuMn699BTmtE/f59A3AbiyY5a5oZWMY5+2bXdMf+7EL+I5kwavZZexk+lDlHjMqaTvMqFDAK6kdt5L3MiOGcs+2u9z7sQvjmHJMkqWewPVKm7CnEr63fDnEIArmLLMTWyXsezTtv2O6c+d+K9jN2UdSsaefHiKeum57dLnmw2lHcCr7bPMDaxkLPu0bb9j+nO38ThlvQldydglHt9Hicfc9unrnKhxE4BXOGaZDm00+7Rtw2P6c7fRWKLu+aV2US/Ny5X092bjJgAvtMT60N9mPPu0bcNj+nO3wajneg/J8/v2GTeZPkWJx9xK+jp/5l4ZBxjQF1nmhjVlPPu0bcNj+nO3oTjmcn31rGT8eukvw5x26SeZ/ioAz1A7kCVuVj2OzH3OPm3b8Jj+3G0gThnvIbFk7GT6ECUecyq5vJFZ+3lQ38r2/uALNLRP+xvVMWPaRzt+zt3A0WKzlKXVh+5T+jouz4mbjPmAvxYl6z9/TvFABTzRElsBj1gPXe3Tth2P6c/dgNHTpMFr2UW9NC+3z7rPgTrx3cMU8FlLLJQ/ag3iPm3b8Zj+3A0W9SG0ZJtKxt6s5RQjknOqZRO1jdd6/A8B+Iwlbk6j1pzt07Ydj+nP3SBxzJiTY1+iRL00L1Oy7nPHih3ARy2xMsePGdc+bdvymP7cdR6nWM3hY0r63QL6KcddQjWffdZ77KcAfMASK3McM659tOXn3HUaW6x7fqld1EvzfGudtFo/UwnAe+rISusb0qiTCqt92rblMf256zB63SxlafX+ckpfx/qpcYjEag4l6zxnjoEX+OcwspL2zoE+vLmP3+WSDP4Unqs+fPz+Pv6a8exySfZuIpm+pnMu58wPWZcptgYH3lOfrls/0U8Z1z5GRz7nroOodb1TuKaScScfnqLE49rqm58lll/9XEwBeLDEJKCRd4Pap21bHtOfuxXHFjZLWdqUseulS7im26zvGCvtAv6hJg2tb0Ij26dtWx7Tn7sVhkmD7e2iXpqnuc26ju83AUj7m88pY9unbXse05+7lcUhEp6l1IeWfdZ3Tlwj6oPZTbiW26zr+E4BNq12YK1vPMeMbR/t+Tl3K4nadlNYgxL10nzebdZ1XL25gg1bYqOVY8a2j/b8nLuF4xSbpaxVyTKTnVvElreHv6Y1TTZU1gEbNqX9TeeQse3Ttj2P6c/dQqHuuR+7jFsvXROvEl6qXr9r2hVzCrBJU9rfcPYZ2z5t2/OY/twtEDZL6dMuYybTpyjxeI2S9ZwXp8An2GxlXJIKtqBu3GCzlD7d5nL8RlNyeStXE7CRl/ycyzmX82IN13TJ+INDvIIkelxLJNESGeA5zhlXyaU04RAlHs91vo8/ZB2+jkEpPkISzTVJogF+bpe3W4jzdG/u489ZXk2gTTLkgyTRADC/fdRLP1ed7/DXLG8Xkwz5AEn0uLx+AliXkkt5xzFKPJ6qznk4Z3neJPALkuhxSaIB1mnKZVRavfTn1TLBNUw0nGI0mvdIoselPhlg3Xa5jErvwqec7+MvWZ7aaH5GEj0uSTTA+pW8XRJvCh9T66PfZFl1ycJd4IEkGgCWV3IZlVbi8XF12bulB4jURvNfJNFckzpsgNfZxZJ4H1MT6D9mWSVGo3kgieaaJNEA17GPJfE+5G9ZvqzDAw7/IIke1xKvvCTRANdTcinv+D5KPN5VR6OXLOsoUb9OJNEjW+IG898DwLXVCW2WxHvrnOVX6zAajSR6YOe0978HgLnscpl8+KdQV+v4IcuZYjR68yTRXNOvA8CcSi7rFdeR6S+zbX/OsoxGb5wkelzntKcmGqCNch/fZdslHm+y7CTDKfq9TZNEj611XXSJGwpAS7u8XRJvi/ffpZe8U1qzYZLosVmhA+Dn3mRM+1xW8dhlW8738W9ZztfR722WJHpsS0y6+CIA61VXdfhdlil5m1vJ2y3ES7Zjn+WWvKsJ9BQ2SRI9tv9MeyVcSwkwhzrA8JtcSgHOGU/JtpbEqwn00qPRbJAkemzntPfbcC1eEcK8bu/j91k2AZvTLpcl8bawikRd8m6p0egp7tebJIke2zntKee4nnpTLgHmdM5lclgdmf5rxlOyjS3Elx6NNsFwgyTRY1uiJrqEa9oFaOGcy/U2conHIWOXeHyb5XwVNkcSPbZz2qujp0ajr8fMb2jrNpdR6bqRxznj2eUyKj3iyGkdjV7qbUKJCYabI4ke209ZpkZMEn09NYG2Kxa0V0c1a730iCUe1TcPMZrbLGcKmyKJHt8SJR3/Eq6pjhhJpKG9cy4jt3Vk+k3GU+8th4zlTZY7Vko6NkYSPb6/p70pXNs+EmlYyjmXUekR66V3GS+RXmqCYYn+b1Mk0eNbanKhOt7r22f8GfawZre5jEr/JWPZZawa6TdZdrk7NkISPb4lkujqyzCHksuo0XexEgosZZ/xlsSrb7pKxrDkcnfKGTdEEj2+mkSbXDie+pBSR6XrxKASoLVzLiO4o2whXt8ejjYavYQp3sRuhiR6G5YYjTbBoo3a6dUdyXYBljDSFuL1vj1KAvgmyyXS3sRuhCR6G5aYXGi96HZKLiUepxiVhqXc5jL5sOd66Xrf3mUc/yPLUNKxEZLobXiTZXgab6vkkkiPvCMZrNk5/ddLTxnHbZah79sISfQ2vMkyRnsaP6cPu/v4PpbEg6Wcc7kO/5D+SjxGum/X+UBv0l4d0S9heJLobag3knPamzLWBIulVjp5idru+1gSD5b0t/RXL/2rjHXfXqqkw2j0Bkiit2OpG8ku4zinPyWX8g4lHrCc2/S1hfhISfTfsozfhuFJorfjTZbxrxnHUq8Gr2GXy6h0LfGw/BK0d87bLcSXSuyeqmQc5yz3JpbBSaK3402WMWWsG/JSI/rXss+lXnoXYAnnXGqlR9xCfK2WuG+XGLAYniR6O5YcRd1lHLdZbjvZaymxJB4s7TZvtxDv/Z6ydkuN/E9haJLobVlqFPXrjGPJ7WSvrcSSeLC0fS67Ho60hfjaLDUpvAQYRrmPu4ViylhqScTdQHHKdbb8bf25p9A758xbJZdr8W7hmDKeY9q349pr33klI9Hbcs5yNXg3GUutaRzpFWy5j29y6cAtzQTLOOdtiQfXtcTOvVboGJwkenuWemU4ZbwZ33XJqtFqGct9fBclHrCkfSTS1/Ym7ZWYXDg0SfT2vMlydhlLrbOrifQ549nl7ZJ4QHv7jDP/Yg3eZBklwFBqcnS3QPyYMZ/KS9ZRxzhXnPL0B6DWn20KvXPOfFy9X9b7pja6jlPat+UuDMtI9DYtVdJRO4RrTF5bm3PGrmMsuZR3fB+jKtBSLRfrfW36NVlilY4ShiWJ3qbbLKcudzdqjdg+l2R61KWqvogl8aC1N+Falphc+OswLEn0Np2z3I151NHoR+dcXt+NWitd7XJZLmoXYG5vwrWc094XYViS6O1a8hXhyKPRj97kMio96ta+JW93PdRJAD14k/aszjEwSfR23Wa55dlGH41+120uo9KjlniUXGqllXgAa7dEn1fCsCTR21VvJksmdlsYjX50zqX0oY5Mj7qD1S6XUWmAtar93jntlTAkSfS2LZnQbWk0+tE5l50ORy3xAFi7c9pT0jEoSfS2vcmyk1bqaHTJ9tzm7ZJ4o+14CLBm/5H2ShiSJJol1zauT+c32a79ffwu49ZLA6zNEgMXRqIHJYnmTZYtLdhl27vOnfO2XvocAOZ0TnuS6EFJoqn+Lcv6Jpwz9pJ4AGtgJJqrkURT3WbZ2ty6zvA+VLe5lHiMuoU4wJIk0VyNJJqq3lSWHo3e6iTDD6nHY5+xtxAHWMISSfR/D0OSRPPo2yw7Gl2f1A/hXedc6qX/ECUeANdwDlyJJJpHaxiNnrK9taOfoq7nrV4aAFZEEs27lh6NruqSdyV8yG3G3kIcALohieZdaxiNrmUd38VEjI855+2SeG8CwNqVMCRJNO+ro9HnLKuu1rHlTVie4pzLqLQSDwBYgCSa99XR6DUsr1Zro78Kn3Obt1uIA7A+/xmGJInmQ26zjlKBOipewlPsY0k8gDX6MQxJEs3HrGFks9ZFH6M++qnOudRL/y5KPABgVpJoPuZN1jGqWWL96Of6IZbEA/iQErgSSTSfUuuSl17yrvoyJhq+xG0ukw+XXnFlTlPo2RQYn5roQUmi+ZS1TDKs9rERy0ucc2m3Ueul68PVKZcyFvpRcinVOgbaWqI8cA2DUcBCakd3t5KwYsfr7HJJOtdyPK8Zh3hVu3Y1gfkmy54nU/pSoo2uaZf27bkPsFl13ea7FcUX4bXq6PQp6zqu14pDJNNrU5Pnm1xWKVj6/JjSlxJtdE37tG/PXYBN26f9jedjUTtiifTrlVzqptdyXK8Zp6ijX4sp63pgm9KXEm10TXXp1Nbt+WWATasjSae0v/l8LCTS11Pu4/us59heM04xCrSUKesqBXuMKX0p0UbX9F20J7CAtZV1SKSva5dxSzxOca60UnIpqVnruTClLyXa6JqOad+eJQC51NLerSgk0te3z7qO8TXjEB3aXNZU9/ypmNKXEm10TUucnwD/5Zj2N6HPxVfhmkrGrZeucRPJ9DV9nfUnz48xpS8l2uha6oNe67a05TfwMyXr7DBvwrVNGbvEYxdeY0p/9fRT+lKija5lSvu2PAbgPXW28d0K4ybMYRfJNG+VrPON1FNiSl9KtNG1LNFv/S0AH7DEUkFPiTr7uoRrK1nvMXfetLGGzVJeG1P6UqKNrmWJ+9e3AfiIY9rflJ4Sp0iI5lKyzDJRreIQ5877epk0+JSY0pcSbXQtx7Rvyz8F4CNK1v2a3w1sPruMW+JRk8WbUNVX4Kf0dfw+FVP6UqKNrmWJh8ApAJ+wtvWj349DjCzOaR/10iOa0m/d86diSl9KtNE1LNVP/SoAn7G29aPfj1NMHptTydhL4p2ynfXIS8Yu15nSlxJtdA1LTCq0vB3wZPu0v0k9Nw4xKj2nknFHpUc/f0aqe/5UTOlLiTa6hkPat+MxAM9wm/Y3qufGKUal57bL2Ml0XaGiZBw9bZby2pjSlxJtdA1LrGduZQ7gWepoVi+bL5xiVHpO9VzYp49z4aXnzy59mzL2w86HYkpfSrTRa5Usc659GYBnqsnTKcvctF4Sh0im51Qyfr30Ln2p9d3H9NXO14opfSnRRq+1yzLnWgnAC5T0lUhb0mx+oy2V9n4cs/5Oc4TNUl4bU/pSoo1e65D2bWhSIfAqJf0lTaeol57bLiYftraVSYNPiSl9KdFGr3VK+za03TfwaiV9JkzHeBU3p5KxSzxq3GQddtle3fOnYkpfSrTRa0xZ5jyz0RdwFbX+stcRsEMk03MqGbs295Tl3mxM2W7d86diSl9KtNFrHOI8AzpXE+lTlrmZvTZOMaowt13GHi09pV2nWiJ5/lRM6UuJNnqNU9q3n3po4OpK+k6UTlEvPbd9xq7bPWS+Nxvqnp8WU/pSoo1easoy55h6aGAWJf2POB6ixGNOJePXSx9y3XNoS5ulvDam9KVEG73UIcucY7sAzKRkjFf3h0im59RzCdBT4pTXd7ZTTBp8bkzpS4k2eqlTljnHSgBmNGWZm9u14xSjDnPbRTL9vinqnl8aU/pSoo1eYpdlzq9TAGZWJ+rdDRSn2OJ1TiVjbyFe45jPj2DVuufDCj5rzzGlLyXa6CWOWeb8OgRgZt9lmRtcixtoCXMp2Wa9tEmD14spfSnRRs9V4vwCBnbKcje5FnETyfScdtnGOfSrjXzXljGlLyXa6LkOWebcOgVgZjUxuNtAnKJeem61LKi2cw/nw0ti5JHnH7NMWdeUvpRoo+coWe6ecAjAzKYsc4NbKk65rDTBPErGL/EYLb7N5WE6C/zbU/pSoo2eY5f27TVCuwGd2Ge5m9yScYgSjzmV+/g+fZ0TW4tjfnkNtP4MU/pSoo2e45T27XUXpRyb9M+B9n6bbdrlcqO9CXM438fv7uOPD7+zHuf7+P1DnAPz2GW5gYo3AWjAaKF66Rb26eucGDF+fDgOv8rHtf5MU/pSoo2e6pT2bfUYSvaA2W1lUuFToz5QlDCXEvXSS8W7dc+f0vpzTelLiTZ6il3at9NjnALQwJTlbnRrjkMk03OaYpm4VnHM85Kw1p9vSl9KtNFTnNK+nR5jFzZJTTSteeX1YbtcRqVvwhze3Mdvol56Tudc2rfWPb8JtFPvmyXLeROABuor3jvxyTjFyMacSpyH14yn1D1/SuvPO6UvJdroU0qWHYU+BKCRUbf7niOOUeIxpxLn42vju7z+HG39maf0pUQbfcoh7dun5/MJ6JiVOZ4fh0im57SLeunnxjHXSx5af/YpfSnRRh9T0r5t3o1TABq6Ey++Wf8pzGkfyfTn4nGr7mtq/R2m9KVEG33MKe3b5t3YBaARy9u9Pk5x455TiSXxPhb7vLzu+VNaf48pfSnRRh/yddq3y7txCkBDU5a96Y0UhyjxmFOJUenHOGbec63195nSlxJt9L6Sy1uRuwVjFzbPEne0NMco1lbtcknyvolkeg7nWBLvHFt1s06HLNufnGNZOyKJpq2S9t5k7ESo1qceY1RkLrf38bv7+Eu246f7+HMuDxFvAutSyzimLOuv8WAJNLZP+1du3z782yXj17qe7uPLMJdd+jofXnq9tB7ha/0dp/SlRBs9KmnfFu/HKd7+8cBINC2VtPfTw89zLklQHV37W8ZUclm39xA3+Wsqeduuo3qTy4h7fbPxU2CdjlmeUWhgEUtsbPGxkdldxp84dhPJ9GvUEdnahktPYJozTll+1LH1d57SlxJtVNX5H3cLxynuqcBCjllfZ7DP+EnSLjzXLmOfF6/dqvuaWn/3KX0p0UZLL2f3GPsALGSJ3QrLEz5X/W9uF/hsLeN0H1+Ez5myzMNeyzhkXSvltP7+U/pSsu02KlnHA+0pAAuqN6HWN77nJAsl45d4HOJ15IeUXNqmh2P40jhmnQlk63aY0peS7bZRyXruybsALGiJm+FL7LKNemm2Ufdcv9su69W6Pab0pWS7bbTE28sPxSkAC2udqLzmxleTq33m/Xxr6Bh22a5dxn5YWlPd86e0bpcpfSnZZhsd0v57fywsHQosrvWN75TXKxm/Xvr7bKvEY8r4dc/H9HNMW7fNlL6UbK+NbtL+O38sDgFYgdY3v1OuZ4p66d6VjF/3XB+IpvSldRtN6UvJttroJu2/76eiBGAFWt/8Trm+XcZOpk8Zr156K3XPf0qfWrfVlL6UbKeNbtL+u34q9gFYidY3wFPmUbKNJfF26V+tZazfpYc2f2kssVX3NbVuryl9KdlGG92k/ff8VJwCsCKj3QRLltmFsWV8lz5fZ05R99yL1u02pS8l47fRTZa5hj4VJQAr0tPqHM+xi3rptagjsvWz9tCmrzmvp4yjdftN6UvJ2G10k+WupY/FtwFYmVPa3ghPaWuf8eul11p3u5W6533G07odp/SlZNw2uklyt7I4pe/yKGBQ9ebU8mb4Y9orUS/dmrrnvrVuyyl9KRmzjb5JcrfCKAFYoVPa3xCXUqLEY25TtlH3PGVsrdt0Sl9Kxmqj+jB4THK3wtgHYKWWuHEuPXq3y/jJdB1RKmnnV1nvKNa14pTt7JLWum2n9KVknDYqWe/98BSAFTum/Y2xZHm2EL+OLdU9b6kms3UbT+lLyRhtNGW91279XCUAK3abMTqDlyrZRr30lOubMv6Ifq/LCb5W63ae0peS/tvo66TJ535p7AKwcrdxc6ymqJd+Tlsdkyafeak4Zvy6509p3d5T+lLSbxutuf75MSxnB3Rhn/Y3yDVvhbzL+Mn0TV5WmrCFuueet+q+ptbtPqUvJX220ZT1399OAejELu1vkmsfZSixJN77bjJ23XONfaxF+6h120/pS0lfbdTLA/Ap6qCBjtTVBlrfKP+WPpSMv4X4KR9PpmvH+6eMPzJ/jI77fa2PwZS+lPTTRlP6uYa/CEBH6k2r9Y3ylL7sMn4iWUeZj7nUTR8efh995PmUbdc9f0rrYzGlLyXrb6Peyq/2AehMvdEuccPs8bX5PuMn01sIdc+f1/qYTOlLybrbqK680dND8D4AnVriZtvra7uS8eulR46Rt+q+ptbHZUpfStbZRvW/+X6Bz/aa+C5wRf8caOuc9npNos+5lHf85j5+CL14cx+/y2UE+qfAWKZcSrBq9HRvrffQPwauSBJNa39Pe71PIDnnkpT9Mcs8hPA05/v4/UN46GE0U94mz1P6cr6PP8RDLVcmiaa1JW5iv80YbnMZlf5LWJN6TtdjUh903gTGMqXf5Lk65/Jgew5A53ZpXwf3Y8ZTol56DXGIuufXan3MpvSlpH0b1eVIaznScYF/+5pxiiUlgYEssczdXcZdE3SKVTyWiGMsWXcNJe2P3ZS+lKznvO8pTpFAMzPlHLR2zjKmjOlNLiUe6qXbqKUbta3r6+E34bVK4PrOUcJBA5JoWqtJyDntTRnbbS6dxr+FOTzWPdcHlttwLV8FruscCTQwsNu0f7U3Yl30x5Sol75mHGPEdA4ly5QiTelLyXquhbXHKa5VGjISzRKWWP6rTv6asg3nXCZwKvF4nXqePi5Zdw7XdhMJD9dzjmsV2IApy4xS7LNN+5h8+JywVff8brLc8Z3Sl5J1XBdrjlM8kAEbUUeFl9j++5jtKlHi8ZSwVff8vsmyx3hKX0rWcW2sNerW465ZYFOOWeaGu/Wbbcml01lD57emOMZI1tymrOPcm9KXknVcI2uM2wBsUB3xW+Km6zX9xS5KPO4e2mAKcypZ16YdU/pSsp62W1PsA7BRU5a58R7Du/ZZT6fYMn6MTnhu9a3PTZYp3fpUTOlLybrabw3X7i4AG1Y72KVuwiW8q2Rb9dLqnue3y/qS58eY0peSdbbjEnHKuLvPAjzLMcvciPfhQ6aMXeJxjNKNuU1ZV+nGh2JKX0rW3Z4tr18PvwAP9lnmZryljVdeYpexkunTfXwZ5lTu45A+zocpfSnpo13nDHNZAN4zZbmb8hQ+pWS5yZ/Xise6Z6NX81lr3fOnoqQvtXyhl7a9dpziXg3wUUt1vsfwFCV91ksfovZ9bnV0/5S+zose30JN6auNrxW38QAM8ElLjna6QT/dLn0kTMcYuZrblPXXPX/q/OjNlL7a+LVh9Q2AJ5qy3M16H56r1iaeso7O9v2OV93kvOpD59K7Db42dunPLn218WviGG+QAJ5lqZKO+u8ajX6+kvWUeKh7buMmfdU9fyxK+lMfDntq45dexyb/ArzAkiUd+/BSJctu43yMUau5TRlnpZZD+tT7BN/PhXXbAV5hynI3cKPRr7dL20Sr/ltTmFNdEeKY5a7LOaKkT9+lr3Z+ahzjOga4iiVfFe/DNewz73FS9zy/EeqeR7vGj+mrrZ9yHe8CwNUs+crSaPT1lMxTL+2V7/y+zhh1zx86d3o2yjExfwFgJlOWvcHvwzVdqxzg+PD/xXymjLvd+236VhPOntr7QyF5BmjgmGVv9G7y17fLy45rnbA4hTmVjFcq8G70PgJd9bxboeQZoKGll3Lah7nU5av2uSRtH3s9Xf++TqIy8jyvx6267waNkWrn63XTU9s/tv8+kmeApupNd+n6vxLmVnJJlKdcOttdjDq3Mmrd82McM9Y1vE8/bS95BljY0muiHgPjmTJ26cao5T/HrL/t62e0UQrACqyhBlCHwChKxl1nuMboyx6u9a1B/Vx1wGMKAKtyzLIdxCleSdK3x7rnkUs3Rl/2sGR9bX7MJXF2fwRYqSnLdxbfBPq0i7rnEaxlUmFt7zraL3EG6ES9cS/deUyBfkwZu+75lG1dk0vND3lcJWcXiTNAl6aso9PWibB29Rw9ZPnrZc6kbp/tXYt1smSrNq7/lhpngIEcs3wH/l1gnbZQ93zINh9kW+9UOAWAoUxZR0c+8ux/+lTrZU9Zx/UxRxyz7cSudT20N24AA6qd6dIdeh3ps4seazBl/LrnXTikXZt/HwCGNGU9nbvRGpZSz726YswaroU5wm53P3dKu7Y/BIBhHbOOjv4YaO8mY9c913kHJTxqveHULgAMa8p6OvybQBtT1D1vUeul7UoAGFrtcNfQ8dcw0ZA5lYxd9zz6Vt2vdUq7Y3EKAMMrWdcr7SlwXaPXPdcYfavu12pdynEIAJuwz3qSASt2cE1fx1bdtN8058sAsAl1BOuU9SQG9bOUwMtNabsz3RLXyBSeqrZXy+PjrQDAhkxZT4IgkealSsave96H52i9wcoxAGxOvfkvnSRIpHmJx62613T+XjvUPb9MXeqv5XHaBYDNKVlf/egpEmk+bQt1z1N4iZL2x6sEgE2qS2StJXmQSPMpU2zVzacd0vaYHQPAptWO4G5lcYpVO7goaf+KvmXYqvt6Tml77HYBYNNK1vl6vH6mr8JWPdY926qbp9il/fErAWDz1ljW8Rg3YWt2sVU3z3NK+2MIAP9wm/UkGe/HN2ELptiqm+fbpf2x3AUAHqxtE5b3o26mUcKI6rl3yHrPvWvEPuqe53JK++PpWALwM3Uy3xoSjo/FKV6Dj2QLdc/HePib0y7tj+khAPABa66Pfoyb0LspY9c9n+KBb25LvT2bAgAfcZv1JCMfC+UdfZpiq26u4ybtj+8pAPAJdYSnJqlLJyRPSVhM1OpDPafqBNG1n1OvCVt1t1OyzDHeBQA+o6Sf1+3HGJVes5vYqpvrOqT9cT4FAJ5o7RMN34+bsCZTxq97/jK0tssyx/sQAHiGXdaTtEhs+lCyjbpnpRvLOGWZ414CAM+0z3oSmKfGITq91rZQ92yr7mXdZJnjfggAvFCdNLV0AvPSzq+EuX0ddc/Mq2S5418CAK9wm3UkNC+JQ3SEc5jSx0ouLw0rwKzDkjuqHgIAV3DMehKcl3aIJbzWlLHrnmvso+55LZYsEyoBgCvoZQ3pz8UhXs+/xJTxk+djJE5rssty58IhAHBFoyTSdw/fYxcjjp8zZfzk+RQPVmtTsmytfQkAXNlIiXSN2lEfIol6Vz3GNxl7wuDjsd+HtVmyDrrGIQAwk9ES6cc4ZbsJdT2mdZ3tY/o6Zi8NW3Wv19LLJZYAwIxGTaQf45TxE+p6DHe5fM/RR50f4xhvHdbsJsueH/sAQCO3WUdy1CL5qkueTenblMv3qN+nh3a/VpxiR8u1+yrLnyMlANDQPutIlFpFHbU95vLauSZmX2Sd6kjzlLdJ81ZGm98/Vvso3Vi7eg0tfa7sAjTzTwEe7XN5FbtVP93HDw/xHw8/69+dH37OqeSSJNZE5LcPf/4iRtX+dh9/zuUYsF4lyy8veL6P3wRoRhINP1dHPL8J73s3mX78+Z8P/9v5if8f5eHnr3NJmMs7P/m5N/fxl4efrFvJOtbnrgn0OQCwoDoCeso6XuWLbYWtuvtSso57xT4AsBIlEmnRNvZR99yTknXcI+pncN4AsCq1Y6pr8S7dSYqx4xglLb0pWc9DthVbAFitfdbRWYqx4hTrPfeoZD0J9LcBgJUrUd4hrhO26u5XnS+xlmUWT1HGAUAnSrazMYuYJ2zV3a+vsq51yqcAQGd22eamH+LlcYykp2c3Wdf5tA8AdKpke9tOi+fHKSZ+9ay+NThkfecUAHSvrulrVFq8H7bq7l/J+uZBnGIlFwAGUqJWWvw87HrZt6+yzofjXQBgQLtYwUO8je9i1LA39c1BfQBa4/m0DwAMrMQGLeJtnGL0sBdT1vsQfAwAbETJZSRyjR2yaB+HGJVeqzWPPtc4xbkDwAbtosRD5L+SoV1Ykynrvj5rXXYJAGzYLpJpcYlDJEZLW+PSdR8KyyMCwINdJNPiMsJ4E1qryXNt9x6WpdwHAPiFXSTTQolHS7v0c83tAwB80i6SaWFb8DlN6Wt30W8DADzZFBu2CPXS1zSlr+S5xncBAF6k5JJMn9JX5y+uG8cYmX6JWvP8p/R5/Xwf28QDwFXs0t9ImrhunKJm+im+SD8TBj8UEmgAmEHJJZGqHW1PiYG4Xpyi1ON9Nencpf8HTQk0ADRQcnldLaH+dNQRyWPGfPg4PnyvrSZeUy4PFL2OOr8bEmgAWECJko93oyZVh/wyway/j/jQ8fh9v8zYiVj9bvU71u86QuL8GBJoAFiJKZflsbY0Sn3MZU3dKZ9Wk5XbBT9ni6grO+wyRsnHlMsbl2PGSpwf4zYSaOjePwUYUe2g62Sr6T7+5eH33jvtn+7jh/v4+3387eH3n/I89SHj64zvfB9v7uPfc2mnH7Jej+dqjXquThk7wfxrTBaFIUiiYTtqklJySVJ+m7fJyxqdc0n8/uPh55uHv7uGfba35fbjA8hjUn1O+8T6Vw8x5XIe/vqd37fiL7EbIQxDEg3bVpOa8hCPo9W/fefv5xoR/ClvE7v6sybL57xN8J47wvxctVTgm/DY/ue8PQY/fSQ+pLz3+6/eiV/n7YPar2JlkT/HboQwFEk08DklbxOjxz8/evfvH72fdD3++fzw53PWYYpl45hfPff/kMvbFGAgkmhgy0ouk9dK4PrO9/H7rOfBEbiifw7Adp3v43e5TFSEa3qTy7l1DjCk/xaAbfuf9/H/5PJmbgq8Xp1A+Mdczi0AgOFNuWyxvaY1hUU/Ude0ngIAsEEll41LekrexPJxjNp6AIB/rOfbSwInlg1L1wEAvKNEeYf4eJyifAMA4KP26Su5E/NHHX0eeXtyAICrKDEqLYw+AwC8yD6XVRh6SfrE9WIfo88AAC9W7uM2fSWA4uVxjJU3AACuZhclHiPH6T6+DAAAs9hFMj1S1HKdfZRuAADMrsQqHiOEVTcAABZQol66xzhE3TMAwOJKJNOSZwAAXqTkkkyf0ldyOXLUmudvI3kGAFi9EhMQ15A876PmGQCgS7tc1h7uJfnsPY4PbS55BgAYQIlSj7nisWRjCgAAw6qbenyXvhLVNcbxoS2NOgMAbEiJco+XJM5/isQZAIC8TajrCHUtT+glqZ07alscI3EGFvRPAaAXUy6lCv9yH19kW364j3+/j789/P5TABYkiQboUx2BnR5ixKT6MWmuP2viLGkGVkUSDTCGmlR/8RA1qS7pJ7E+38eb+/h7LkmzkWZg9STRAGOriXR5+PnbvE22W9cSn3NJjGuC/B95mzifA9AhSTTAdpWH+NVDlIe///U7//vn/JS3o8b/8fDz/PB37/4EAAAAAAAAAAAAAAAAAAAAAAAAAAAAAAAAAAAAAAAAAAAAAAAAAAAAAAAAAAAAAAAAAAAAAAAAAAAAAAAAAAAAAAAAAAAAAAAAAAAAAAAAAAAAAAAAAAAAAAAAAAAAAAAAAAAAAAAAAAAAAAAAAAAAAAAAAAAAAAAAAAAAAAAAAAAAAAAAAAAAAAAAAAAAAAAAAAAAAAAAAAAAAAAAAAAAAAAAAAAAAAAAAAAAAAAAAAAAAAAAAAAAAAAAAAAAAAAAAAAAAAAAAAAAAAAAAAAAAAAAAAAAAAAAAAAAAAAAAAAAAAAAAAAAAAAAAAAAAAAAAAAAAAAAAAAAAAAAAAAAAAAAAAAAAAAAAAAAAAAAAAAAAAAAAAAAAAAAAAAAAAAAAAAAAAAAAAAAAAAAAAAAAAAAAAAAAAAAAAAAAAAAAAAAAAAAAAAAAAAAAAAAAAAAAABgVP8LETcWsCxQxykAAAAASUVORK5CYII=;" parent="1" vertex="1">
          <mxGeometry x="781.5" y="381.94" width="60" height="60" as="geometry" />
        </mxCell>
        <mxCell id="MhJJxb33x_0aDwhk_BRI-2" value="" style="shape=image;verticalLabelPosition=bottom;labelBackgroundColor=default;verticalAlign=top;aspect=fixed;imageAspect=0;image=https://www.svgrepo.com/show/420629/device-embedded-embedding.svg;" parent="1" vertex="1">
          <mxGeometry x="345.25" y="359.94" width="87.5" height="87.5" as="geometry" />
        </mxCell>
        <mxCell id="gdi4N7OGfdGUCpry7gix-33" style="edgeStyle=orthogonalEdgeStyle;rounded=0;orthogonalLoop=1;jettySize=auto;html=1;" edge="1" parent="1" target="MhJJxb33x_0aDwhk_BRI-5">
          <mxGeometry relative="1" as="geometry">
            <mxPoint x="389" y="366.94" as="sourcePoint" />
            <Array as="points">
              <mxPoint x="389" y="346.94" />
            </Array>
          </mxGeometry>
        </mxCell>
        <mxCell id="gdi4N7OGfdGUCpry7gix-34" value="&lt;div&gt;query&lt;/div&gt;embedding" style="edgeLabel;html=1;align=center;verticalAlign=middle;resizable=0;points=[];" vertex="1" connectable="0" parent="gdi4N7OGfdGUCpry7gix-33">
          <mxGeometry x="-0.0371" y="-1" relative="1" as="geometry">
            <mxPoint x="16" y="-1" as="offset" />
          </mxGeometry>
        </mxCell>
        <mxCell id="gdi4N7OGfdGUCpry7gix-35" style="edgeStyle=orthogonalEdgeStyle;rounded=0;orthogonalLoop=1;jettySize=auto;html=1;" edge="1" parent="1" source="MhJJxb33x_0aDwhk_BRI-5" target="MhJJxb33x_0aDwhk_BRI-7">
          <mxGeometry relative="1" as="geometry" />
        </mxCell>
        <mxCell id="MhJJxb33x_0aDwhk_BRI-5" value="Vector&amp;nbsp;&lt;span style=&quot;background-color: transparent; color: light-dark(rgb(0, 0, 0), rgb(255, 255, 255));&quot;&gt;Store&lt;/span&gt;" style="shape=datastore;whiteSpace=wrap;html=1;" parent="1" vertex="1">
          <mxGeometry x="480.25" y="306.94" width="80" height="80" as="geometry" />
        </mxCell>
        <mxCell id="MhJJxb33x_0aDwhk_BRI-7" value="" style="sketch=0;outlineConnect=0;fontColor=#232F3E;gradientColor=none;fillColor=#232F3D;strokeColor=none;dashed=0;verticalLabelPosition=bottom;verticalAlign=top;align=center;html=1;fontSize=12;fontStyle=0;aspect=fixed;pointerEvents=1;shape=mxgraph.aws4.documents;" parent="1" vertex="1">
          <mxGeometry x="489" y="420.69" width="62.5" height="76.17" as="geometry" />
        </mxCell>
        <mxCell id="gdi4N7OGfdGUCpry7gix-5" value="Embedding Model" style="text;html=1;align=center;verticalAlign=middle;resizable=0;points=[];autosize=1;strokeColor=none;fillColor=none;" vertex="1" parent="1">
          <mxGeometry x="329" y="436.82" width="120" height="30" as="geometry" />
        </mxCell>
        <mxCell id="gdi4N7OGfdGUCpry7gix-7" value="Query Context" style="text;html=1;align=center;verticalAlign=middle;resizable=0;points=[];autosize=1;strokeColor=none;fillColor=none;" vertex="1" parent="1">
          <mxGeometry x="478" y="491.94" width="100" height="30" as="geometry" />
        </mxCell>
        <mxCell id="gdi4N7OGfdGUCpry7gix-19" value="Context Retrieval" style="text;html=1;align=center;verticalAlign=middle;whiteSpace=wrap;rounded=0;" vertex="1" parent="1">
          <mxGeometry x="404" y="526.94" width="100" height="30" as="geometry" />
        </mxCell>
        <mxCell id="gdi4N7OGfdGUCpry7gix-29" style="edgeStyle=orthogonalEdgeStyle;rounded=0;orthogonalLoop=1;jettySize=auto;html=1;entryX=0;entryY=0.5;entryDx=0;entryDy=0;" edge="1" parent="1" source="gdi4N7OGfdGUCpry7gix-20" target="tW_ZdPbJPwL0s5sbWzu6-3">
          <mxGeometry relative="1" as="geometry" />
        </mxCell>
        <mxCell id="gdi4N7OGfdGUCpry7gix-20" value="`prompt` `context`&lt;div&gt;`query`&lt;/div&gt;" style="rounded=1;whiteSpace=wrap;html=1;align=center;" vertex="1" parent="1">
          <mxGeometry x="659" y="382.57" width="80" height="59.37" as="geometry" />
        </mxCell>
        <mxCell id="gdi4N7OGfdGUCpry7gix-43" style="edgeStyle=orthogonalEdgeStyle;rounded=0;orthogonalLoop=1;jettySize=auto;html=1;entryX=1;entryY=0.5;entryDx=0;entryDy=0;" edge="1" parent="1" source="gdi4N7OGfdGUCpry7gix-28" target="gdi4N7OGfdGUCpry7gix-42">
          <mxGeometry relative="1" as="geometry">
            <Array as="points">
              <mxPoint x="812" y="596.94" />
            </Array>
          </mxGeometry>
        </mxCell>
        <mxCell id="gdi4N7OGfdGUCpry7gix-45" value="event-stream" style="edgeLabel;html=1;align=center;verticalAlign=middle;resizable=0;points=[];" vertex="1" connectable="0" parent="gdi4N7OGfdGUCpry7gix-43">
          <mxGeometry x="0.3521" y="-1" relative="1" as="geometry">
            <mxPoint x="9" y="1" as="offset" />
          </mxGeometry>
        </mxCell>
        <mxCell id="gdi4N7OGfdGUCpry7gix-28" value="LLM" style="text;html=1;align=center;verticalAlign=middle;resizable=0;points=[];autosize=1;strokeColor=none;fillColor=none;" vertex="1" parent="1">
          <mxGeometry x="786.5" y="441.94" width="50" height="30" as="geometry" />
        </mxCell>
        <mxCell id="gdi4N7OGfdGUCpry7gix-30" style="edgeStyle=orthogonalEdgeStyle;rounded=0;orthogonalLoop=1;jettySize=auto;html=1;entryX=-0.004;entryY=0.422;entryDx=0;entryDy=0;entryPerimeter=0;" edge="1" parent="1" source="r-FI9sSgYMsOw1SAUbAI-6">
          <mxGeometry relative="1" as="geometry">
            <mxPoint x="329" y="411.66" as="targetPoint" />
          </mxGeometry>
        </mxCell>
        <mxCell id="gdi4N7OGfdGUCpry7gix-31" value="query" style="edgeLabel;html=1;align=center;verticalAlign=middle;resizable=0;points=[];" vertex="1" connectable="0" parent="gdi4N7OGfdGUCpry7gix-30">
          <mxGeometry x="0.091" y="1" relative="1" as="geometry">
            <mxPoint x="-5" y="1" as="offset" />
          </mxGeometry>
        </mxCell>
        <mxCell id="gdi4N7OGfdGUCpry7gix-44" style="edgeStyle=orthogonalEdgeStyle;rounded=0;orthogonalLoop=1;jettySize=auto;html=1;" edge="1" parent="1" source="gdi4N7OGfdGUCpry7gix-42">
          <mxGeometry relative="1" as="geometry">
            <mxPoint x="109" y="436.94" as="targetPoint" />
          </mxGeometry>
        </mxCell>
        <mxCell id="gdi4N7OGfdGUCpry7gix-46" value="event-stream" style="edgeLabel;html=1;align=center;verticalAlign=middle;resizable=0;points=[];" vertex="1" connectable="0" parent="gdi4N7OGfdGUCpry7gix-44">
          <mxGeometry x="-0.401" relative="1" as="geometry">
            <mxPoint x="10" as="offset" />
          </mxGeometry>
        </mxCell>
        <mxCell id="gdi4N7OGfdGUCpry7gix-42" value="Process chunks" style="rounded=1;whiteSpace=wrap;html=1;" vertex="1" parent="1">
          <mxGeometry x="394" y="566.94" width="120" height="60" as="geometry" />
        </mxCell>
        <mxCell id="gdi4N7OGfdGUCpry7gix-47" value="Build Prompt" style="text;html=1;align=center;verticalAlign=middle;resizable=0;points=[];autosize=1;strokeColor=none;fillColor=none;" vertex="1" parent="1">
          <mxGeometry x="654" y="441.94" width="90" height="30" as="geometry" />
        </mxCell>
      </root>
    </mxGraphModel>
  </diagram>
</mxfile>
